<svg xmlns="http://www.w3.org/2000/svg" width="21" height="21" viewBox="0 0 21 21" fill="none">
<path d="M15.4333 9.77665C15.3937 9.67436 15.3342 9.5809 15.2583 9.50165L11.0917 5.33498C11.014 5.25728 10.9217 5.19565 10.8202 5.1536C10.7187 5.11155 10.6099 5.0899 10.5 5.0899C10.2781 5.0899 10.0653 5.17806 9.90833 5.33498C9.83063 5.41268 9.769 5.50492 9.72695 5.60644C9.6849 5.70796 9.66326 5.81677 9.66326 5.92665C9.66326 6.14857 9.75141 6.36139 9.90833 6.51831L12.6583 9.25998H6.33333C6.11232 9.25998 5.90036 9.34778 5.74408 9.50406C5.5878 9.66034 5.5 9.8723 5.5 10.0933C5.5 10.3143 5.5878 10.5263 5.74408 10.6826C5.90036 10.8389 6.11232 10.9266 6.33333 10.9266H12.6583L9.90833 13.6683C9.83023 13.7458 9.76823 13.838 9.72592 13.9395C9.68362 14.041 9.66183 14.15 9.66183 14.26C9.66183 14.37 9.68362 14.4789 9.72592 14.5805C9.76823 14.682 9.83023 14.7742 9.90833 14.8516C9.9858 14.9298 10.078 14.9918 10.1795 15.0341C10.2811 15.0764 10.39 15.0981 10.5 15.0981C10.61 15.0981 10.7189 15.0764 10.8205 15.0341C10.922 14.9918 11.0142 14.9298 11.0917 14.8516L15.2583 10.685C15.3342 10.6057 15.3937 10.5123 15.4333 10.41C15.5167 10.2071 15.5167 9.97953 15.4333 9.77665Z" fill="#a47c43"/>
</svg>