<svg xmlns="http://www.w3.org/2000/svg" width="121" height="120" viewBox="0 0 121 120" fill="none">
<path d="M51.9653 85.5143C54.3957 87.5504 57.6071 88.4818 60.4983 87.9848C57.6187 87.5073 55.1069 86.0672 53.4724 84.0074C51.7984 81.9821 51.0403 79.4157 51.1923 76.9812C51.4418 72.0398 55.8076 68.0129 60.4996 68.1612C65.1932 68.0179 69.5502 72.043 69.7978 76.9828C69.95 79.4163 69.1929 81.9816 67.5209 84.0055C65.889 86.0659 63.3774 87.5035 60.4983 87.9848C63.3895 88.4855 66.6026 87.5563 69.0361 85.5204C71.46 83.4789 73.07 80.3197 73.2029 76.9828C73.4205 73.6477 72.0811 70.2232 69.7417 67.7407C67.3767 65.2637 63.9453 63.8199 60.5004 63.8002C57.0556 63.8255 53.6223 65.2624 51.2628 67.7441C48.9212 70.2229 47.5846 73.6466 47.8001 76.9806C47.9317 80.3167 49.5442 83.4736 51.9653 85.5143Z" fill="#a47c43"/>
<path d="M17.9161 31.8949C17.9262 41.2635 18.0504 47.4426 18.736 94.1015C18.7419 94.3506 18.8332 98.2254 18.8276 97.9892C18.844 98.4816 18.9018 98.9813 19.0068 99.4673C19.6652 102.388 22.1739 104.656 25.217 104.938C26.232 105.008 27.0024 104.93 27.8934 104.926C35.9067 104.729 39.5149 104.694 52.2483 104.273C52.2399 104.403 52.2223 104.534 52.2143 104.665C52.0283 107.256 51.9024 109.848 51.8231 112.439C51.809 112.962 52.0019 113.496 52.402 113.894C53.1722 114.661 54.4178 114.657 55.1841 113.887L55.2983 113.772C57.0868 111.975 58.7879 110.098 60.4989 108.231C62.2109 110.096 63.9135 111.971 65.7015 113.769L65.8187 113.886C66.1876 114.255 66.7014 114.476 67.2633 114.459C68.3469 114.427 69.1993 113.523 69.1674 112.439C69.0908 109.848 68.9595 107.256 68.7756 104.665C68.7675 104.534 68.7501 104.403 68.7416 104.273C81.5112 104.698 85.981 104.754 93.103 104.93C93.9918 104.934 94.7676 105.013 95.7812 104.94C98.8365 104.652 101.34 102.38 101.996 99.4657C102.1 98.9797 102.158 98.4789 102.175 97.987L102.205 96.691L102.267 94.0991C102.988 44.7707 103.071 41.7484 103.084 31.8925C103.087 31.2385 103.163 15.3396 103.158 16.3409L103.159 13.6869C103.064 10.0908 100.624 7.02103 97.3331 6.04998C96.2925 5.69868 94.923 5.67418 94.191 5.68936C93.8586 5.68777 80.4116 5.62338 81.2314 5.6273L60.4959 5.53302C60.2287 5.53429 26.5812 5.6944 26.8007 5.69335C26.0689 5.67897 24.7048 5.70001 23.6595 6.05211C20.3738 7.02231 17.9344 10.0941 17.8407 13.6901L17.842 16.3433C17.8448 16.9222 17.9206 32.8534 17.9161 31.8949ZM58.8766 103.553C57.779 104.823 56.6611 106.073 55.5524 107.333C55.5022 106.443 55.4819 105.554 55.4181 104.665C55.3125 102.924 55.1318 101.184 54.9654 99.4433C56.7749 99.9025 58.633 100.171 60.502 100.174C62.3693 100.168 64.2268 99.8998 66.0358 99.4409C65.8705 101.182 65.6917 102.924 65.5837 104.665C65.5203 105.558 65.4995 106.451 65.4486 107.344C64.3383 106.081 63.2188 104.826 62.1192 103.553C61.2286 102.536 59.7074 102.591 58.8766 103.553ZM20.8625 94.1015C21.8524 26.7422 21.6044 44.5157 21.7319 21.5273L21.7565 16.3433L21.7779 13.8131C21.8483 11.9128 23.1643 10.356 24.8084 9.89746C25.7022 9.59144 27.712 9.78933 29.3927 9.74352C32.13 9.75655 52.7201 9.85458 60.4959 9.8916C63.6766 9.87689 48.9751 9.94487 91.599 9.74778C93.2839 9.79359 95.283 9.59464 96.1823 9.90279C97.3085 10.2176 98.2782 11.0526 98.7893 12.1083C99.0467 12.6357 99.1923 13.2155 99.2148 13.8118L99.2362 16.3409C99.239 16.9198 99.3154 32.851 99.3108 31.8925C99.3243 42.5208 99.4294 46.3221 100.128 94.0991L100.189 96.691L100.22 97.987C100.223 98.3604 100.199 98.7194 100.141 99.0835C99.7555 101.292 97.9304 103.091 95.605 103.426C94.8977 103.519 93.9409 103.495 93.103 103.528C85.1669 103.725 81.2195 103.77 68.7342 104.186C68.6156 102.376 68.4428 100.566 68.2642 98.7557C71.4785 97.5889 74.4429 95.7458 76.8156 93.2947C81.0183 88.9652 83.43 82.938 83.2047 76.979C83.0814 71.0209 80.3974 65.2568 76.1114 61.367C71.8302 57.4676 66.0134 55.4663 60.4983 55.9721C66.0022 56.4409 71.1208 58.9519 74.6047 62.8739C78.1418 66.7478 79.9726 71.9187 79.8126 76.9796C79.6261 82.0402 77.5187 86.9458 73.9016 90.3821C70.3464 93.8594 65.4522 95.8665 60.5013 95.8127C55.5538 95.8614 50.656 93.8607 47.1051 90.3781C43.4845 86.9448 41.3794 82.0405 41.1902 76.9828C41.0292 71.924 42.8625 66.7555 46.3977 62.8825C49.8788 58.9591 54.9946 56.4449 60.4983 55.9721C54.9823 55.4629 49.1654 57.4687 44.8828 61.3673C40.5956 65.2576 37.9089 71.0217 37.7849 76.9828C37.559 82.9452 39.9822 88.9703 44.1838 93.2998C46.5571 95.7432 49.5171 97.5859 52.7267 98.7538C52.5475 100.565 52.3724 102.375 52.2557 104.186C39.3007 103.758 34.9358 103.706 27.8934 103.532C27.0576 103.499 26.0958 103.523 25.3893 103.432C24.6374 103.325 23.9159 103.059 23.2813 102.66C22.0059 101.866 21.1036 100.532 20.8504 99.0867C20.7918 98.7224 20.7676 98.3623 20.7711 97.9892C20.7779 97.6971 20.8678 93.8775 20.8625 94.1015Z" fill="#a47c43"/>
<path d="M72.4312 24.9196C76.4121 24.5997 80.393 24.1251 84.374 23.2169C80.393 22.3087 76.4121 21.8338 72.4312 21.5142C64.594 20.8913 56.8843 20.8519 48.5454 21.5209C44.5645 21.8418 40.5835 22.314 36.6025 23.2169C40.5835 24.1198 44.5645 24.592 48.5454 24.9129C56.9833 25.5892 64.6842 25.5348 72.4312 24.9196Z" fill="#a47c43"/>
<path d="M72.4312 43.2285C76.4121 42.9089 80.393 42.4343 84.374 41.5258C80.393 40.6176 76.4121 40.143 72.4312 39.8234C64.6701 39.2066 56.9677 39.1547 48.5454 39.8298C44.5645 40.1507 40.5835 40.6229 36.6025 41.5258C40.5835 42.4287 44.5645 42.9012 48.5454 43.2218C56.8817 43.8905 64.5914 43.8516 72.4312 43.2285Z" fill="#a47c43"/>
</svg>