<svg xmlns="http://www.w3.org/2000/svg" version="1.1" xmlns:xlink="http://www.w3.org/1999/xlink" width="512" height="512" x="0" y="0" viewBox="0 0 96 96" style="enable-background:new 0 0 512 512" xml:space="preserve" class=""><g><g fill="#000" fill-rule="evenodd" clip-rule="evenodd"><path d="M47.594 15.816c-17.793 0-32.216 14.423-32.216 32.215s14.423 32.216 32.216 32.216S79.809 65.823 79.809 48.03 65.386 15.816 47.594 15.816zM11.154 48.03c0-20.125 16.314-36.44 36.44-36.44s36.44 16.315 36.44 36.44-16.315 36.44-36.44 36.44-36.44-16.314-36.44-36.44z" fill="#1a1a1a" opacity="1" data-original="#000000" class=""></path><path d="M35.537 35.975a2.113 2.113 0 0 1 2.988 0L59.65 57.1a2.113 2.113 0 0 1-2.988 2.987L35.537 38.962a2.113 2.113 0 0 1 0-2.987z" fill="#1a1a1a" opacity="1" data-original="#000000" class=""></path><path d="M59.65 35.975a2.113 2.113 0 0 1 0 2.987L38.525 60.087a2.113 2.113 0 0 1-2.988-2.987l21.125-21.125a2.113 2.113 0 0 1 2.988 0z" fill="#1a1a1a" opacity="1" data-original="#000000" class=""></path></g></g></svg>