<svg xmlns="http://www.w3.org/2000/svg" version="1.1" xmlns:xlink="http://www.w3.org/1999/xlink" width="512" height="512" x="0" y="0" viewBox="0 0 24 24" style="enable-background:new 0 0 512 512" xml:space="preserve" class=""><g><path d="M7 12h5v2H7zm10-4H7v2h10zm0-4H7v2h10zm3 15.444V24l-2-2-2 2v-4.556A3.987 3.987 0 0 1 18 12a3.939 3.939 0 0 1 1 .142V3a1 1 0 0 0-1-1H6a1 1 0 0 0-1 1v17h9v2H3V3a3 3 0 0 1 3-3h12a3 3 0 0 1 3 3v10.382a3.95 3.95 0 0 1-1 6.062zM20 16a2 2 0 1 0-2 2 2 2 0 0 0 2-2z" fill="#a47c43" opacity="1" data-original="#000000" class=""></path></g></svg>