<svg width="122" height="13" viewBox="0 0 122 13" fill="none" xmlns="http://www.w3.org/2000/svg">
<path d="M4.3418 1.93359H4.21289C4.18164 1.84375 4.13086 1.74219 4.06055 1.62891C3.99414 1.51562 3.9043 1.41016 3.79102 1.3125C3.68164 1.21094 3.54688 1.12695 3.38672 1.06055C3.23047 0.994141 3.04492 0.960938 2.83008 0.960938C2.63867 0.960938 2.46875 0.990234 2.32031 1.04883C2.17188 1.10742 2.04688 1.18945 1.94531 1.29492C1.84766 1.40039 1.77344 1.52539 1.72266 1.66992C1.67188 1.81445 1.64648 1.97461 1.64648 2.15039C1.64648 2.43164 1.72461 2.70117 1.88086 2.95898C2.04102 3.21289 2.24023 3.46484 2.47852 3.71484C2.7168 3.96484 2.97461 4.21484 3.25195 4.46484C3.5293 4.71484 3.78711 4.97461 4.02539 5.24414C4.26367 5.51367 4.46094 5.79688 4.61719 6.09375C4.77734 6.38672 4.85742 6.70312 4.85742 7.04297C4.85742 7.29688 4.8125 7.55273 4.72266 7.81055C4.63672 8.06445 4.50195 8.29297 4.31836 8.49609C4.13477 8.69922 3.89844 8.86523 3.60938 8.99414C3.32031 9.11914 2.97656 9.18164 2.57812 9.18164C2.35547 9.18164 2.14258 9.16016 1.93945 9.11719C1.74023 9.07812 1.55469 9.0293 1.38281 8.9707C1.21484 8.9082 1.0625 8.8418 0.925781 8.77148C0.792969 8.70117 0.683594 8.63672 0.597656 8.57812L0.732422 7.2832H0.878906C0.921875 7.4668 0.992188 7.64258 1.08984 7.81055C1.1875 7.97461 1.30664 8.12109 1.44727 8.25C1.5918 8.375 1.75586 8.47656 1.93945 8.55469C2.12305 8.62891 2.32422 8.66602 2.54297 8.66602C2.74219 8.66602 2.91992 8.63672 3.07617 8.57812C3.23633 8.51562 3.37305 8.43164 3.48633 8.32617C3.59961 8.2168 3.68555 8.08789 3.74414 7.93945C3.80664 7.79102 3.83789 7.62891 3.83789 7.45312C3.83789 7.20703 3.79297 6.98047 3.70312 6.77344C3.61328 6.5625 3.49414 6.36328 3.3457 6.17578C3.20117 5.98828 3.03516 5.80664 2.84766 5.63086C2.66406 5.45508 2.47461 5.2793 2.2793 5.10352C2.08398 4.92383 1.89258 4.74023 1.70508 4.55273C1.52148 4.36523 1.35547 4.16602 1.20703 3.95508C1.0625 3.74023 0.945312 3.51172 0.855469 3.26953C0.765625 3.02344 0.720703 2.75391 0.720703 2.46094C0.720703 2.15234 0.779297 1.875 0.896484 1.62891C1.01758 1.37891 1.17578 1.16602 1.37109 0.990234C1.57031 0.814453 1.79492 0.679688 2.04492 0.585938C2.29492 0.492188 2.55273 0.445312 2.81836 0.445312C3.01367 0.445312 3.19336 0.460938 3.35742 0.492188C3.52148 0.523437 3.66797 0.560547 3.79688 0.603516C3.92969 0.646484 4.04492 0.689453 4.14258 0.732422C4.24023 0.775391 4.32031 0.810547 4.38281 0.837891L4.3418 1.93359ZM6.36328 5.29102C6.36328 4.95898 6.35742 4.66992 6.3457 4.42383C6.33789 4.17383 6.32617 3.95898 6.31055 3.7793C6.29883 3.59961 6.28125 3.44922 6.25781 3.32812C6.23828 3.20703 6.2168 3.10547 6.19336 3.02344V3H7.54688V3.02344C7.51562 3.11328 7.48828 3.22266 7.46484 3.35156C7.44531 3.48047 7.42969 3.64648 7.41797 3.84961C7.5625 3.72852 7.71289 3.60938 7.86914 3.49219C8.02539 3.375 8.18555 3.27148 8.34961 3.18164C8.51367 3.0918 8.67969 3.01953 8.84766 2.96484C9.01953 2.91016 9.19141 2.88281 9.36328 2.88281C9.46875 2.88281 9.56055 2.88867 9.63867 2.90039C9.7168 2.9082 9.78711 2.92188 9.84961 2.94141C9.91211 2.95703 9.96875 2.97656 10.0195 3C10.0703 3.01953 10.1191 3.03906 10.166 3.05859L9.87891 4.17773L9.7793 4.1543C9.73242 3.98242 9.64453 3.8457 9.51562 3.74414C9.38672 3.63867 9.21094 3.58594 8.98828 3.58594C8.86719 3.58594 8.74023 3.60742 8.60742 3.65039C8.47461 3.69336 8.33984 3.75391 8.20312 3.83203C8.06641 3.90625 7.92969 3.99414 7.79297 4.0957C7.65625 4.19336 7.52344 4.29688 7.39453 4.40625C7.38672 4.51953 7.38281 4.64258 7.38281 4.77539C7.38281 4.9082 7.38281 5.04883 7.38281 5.19727V6.70898C7.38281 7.04102 7.38672 7.33203 7.39453 7.58203C7.40234 7.82812 7.41406 8.04102 7.42969 8.2207C7.44531 8.40039 7.46289 8.55078 7.48242 8.67188C7.50195 8.79297 7.52344 8.89453 7.54688 8.97656V9H6.19336V8.97656C6.2168 8.89453 6.23828 8.79297 6.25781 8.67188C6.28125 8.55078 6.29883 8.40039 6.31055 8.2207C6.32617 8.04102 6.33789 7.82812 6.3457 7.58203C6.35742 7.33203 6.36328 7.04102 6.36328 6.70898V5.29102ZM11.1094 5.29102C11.1094 4.95898 11.1035 4.66992 11.0918 4.42383C11.084 4.17383 11.0723 3.95898 11.0566 3.7793C11.0449 3.59961 11.0273 3.44922 11.0039 3.32812C10.9844 3.20703 10.9629 3.10547 10.9395 3.02344V3H12.293V3.02344C12.2695 3.10547 12.248 3.20703 12.2285 3.32812C12.209 3.44922 12.1914 3.59961 12.1758 3.7793C12.1602 3.95898 12.1484 4.17383 12.1406 4.42383C12.1328 4.66992 12.1289 4.95898 12.1289 5.29102V6.70898C12.1289 7.04102 12.1328 7.33203 12.1406 7.58203C12.1484 7.82812 12.1602 8.04102 12.1758 8.2207C12.1914 8.40039 12.209 8.55078 12.2285 8.67188C12.248 8.79297 12.2695 8.89453 12.293 8.97656V9H10.9395V8.97656C10.9629 8.89453 10.9844 8.79297 11.0039 8.67188C11.0273 8.55078 11.0449 8.40039 11.0566 8.2207C11.0723 8.04102 11.084 7.82812 11.0918 7.58203C11.1035 7.33203 11.1094 7.04102 11.1094 6.70898V5.29102ZM10.9863 1.22461C10.9863 1.13867 11.002 1.05859 11.0332 0.984375C11.0684 0.90625 11.1133 0.839844 11.168 0.785156C11.2227 0.726562 11.2871 0.681641 11.3613 0.650391C11.4395 0.615234 11.5234 0.597656 11.6133 0.597656C11.7031 0.597656 11.7852 0.615234 11.8594 0.650391C11.9375 0.681641 12.0039 0.726562 12.0586 0.785156C12.1172 0.839844 12.1621 0.90625 12.1934 0.984375C12.2285 1.05859 12.2461 1.13867 12.2461 1.22461C12.2461 1.4043 12.1855 1.55469 12.0645 1.67578C11.9434 1.79688 11.793 1.85742 11.6133 1.85742C11.5234 1.85742 11.4395 1.8418 11.3613 1.81055C11.2871 1.77539 11.2227 1.73047 11.168 1.67578C11.1133 1.61719 11.0684 1.55078 11.0332 1.47656C11.002 1.39844 10.9863 1.31445 10.9863 1.22461ZM24.2988 1.88672L24.2461 1.91016C23.9414 1.62891 23.5742 1.4043 23.1445 1.23633C22.7188 1.06836 22.25 0.984375 21.7383 0.984375C21.2461 0.984375 20.7949 1.0625 20.3848 1.21875C19.9746 1.37109 19.6211 1.59375 19.3242 1.88672C19.0312 2.17969 18.8027 2.53906 18.6387 2.96484C18.4746 3.39062 18.3926 3.875 18.3926 4.41797C18.3926 5.01562 18.4707 5.57422 18.627 6.09375C18.7832 6.60938 19.0156 7.05664 19.3242 7.43555C19.6328 7.81445 20.0176 8.11328 20.4785 8.33203C20.9434 8.54688 21.4844 8.6543 22.1016 8.6543C22.3242 8.6543 22.5469 8.63086 22.7695 8.58398C22.9922 8.53711 23.2051 8.46875 23.4082 8.37891C23.6152 8.28516 23.8086 8.17383 23.9883 8.04492C24.1719 7.91211 24.3379 7.76172 24.4863 7.59375L24.5508 7.63477L24.082 8.83008C23.7891 8.94336 23.4648 9.0293 23.1094 9.08789C22.7578 9.15039 22.4023 9.18164 22.043 9.18164C21.3203 9.18164 20.6582 9.07812 20.0566 8.87109C19.459 8.66016 18.9434 8.36328 18.5098 7.98047C18.0801 7.59766 17.7441 7.13867 17.502 6.60352C17.2637 6.06445 17.1445 5.4668 17.1445 4.81055C17.1445 4.43945 17.1914 4.07422 17.2852 3.71484C17.3828 3.35547 17.5234 3.01367 17.707 2.68945C17.8906 2.36523 18.1172 2.06836 18.3867 1.79883C18.6562 1.52539 18.9629 1.28906 19.3066 1.08984C19.6543 0.890625 20.0352 0.736328 20.4492 0.626953C20.8672 0.513672 21.3184 0.457031 21.8027 0.457031C22.5566 0.457031 23.2559 0.572266 23.9004 0.802734L24.2988 1.88672ZM29.7188 5.05078C29.7188 4.53516 29.6152 4.15625 29.4082 3.91406C29.2012 3.67188 28.9238 3.55078 28.5762 3.55078C28.4473 3.55078 28.3027 3.57812 28.1426 3.63281C27.9863 3.68359 27.8242 3.75391 27.6562 3.84375C27.4922 3.93359 27.3281 4.03906 27.1641 4.16016C27 4.27734 26.8477 4.40234 26.707 4.53516V6.70898C26.707 7.04102 26.7109 7.33203 26.7188 7.58203C26.7266 7.82812 26.7383 8.04102 26.7539 8.2207C26.7695 8.40039 26.7871 8.55078 26.8066 8.67188C26.8262 8.79297 26.8477 8.89453 26.8711 8.97656V9H25.5176V8.97656C25.541 8.89453 25.5625 8.79297 25.582 8.67188C25.6055 8.55078 25.623 8.40039 25.6348 8.2207C25.6504 8.04102 25.6621 7.82812 25.6699 7.58203C25.6816 7.33203 25.6875 7.04102 25.6875 6.70898V2.53125C25.6875 2.19922 25.6816 1.91016 25.6699 1.66406C25.6621 1.41406 25.6504 1.19922 25.6348 1.01953C25.623 0.839844 25.6055 0.689453 25.582 0.568359C25.5625 0.447266 25.541 0.345703 25.5176 0.263672V0.240234H26.8711V0.263672C26.8477 0.345703 26.8262 0.447266 26.8066 0.568359C26.7871 0.689453 26.7695 0.839844 26.7539 1.01953C26.7383 1.19922 26.7266 1.41406 26.7188 1.66406C26.7109 1.91016 26.707 2.19922 26.707 2.53125V4.03125C26.8633 3.89062 27.0352 3.75195 27.2227 3.61523C27.4141 3.47852 27.6113 3.35547 27.8145 3.24609C28.0176 3.13672 28.2246 3.04883 28.4355 2.98242C28.6465 2.91602 28.8535 2.88281 29.0566 2.88281C29.3613 2.88281 29.6191 2.93555 29.8301 3.04102C30.0449 3.14648 30.2188 3.28516 30.3516 3.45703C30.4883 3.62891 30.5859 3.82617 30.6445 4.04883C30.707 4.26758 30.7383 4.49023 30.7383 4.7168V6.70898C30.7383 7.04102 30.7422 7.33203 30.75 7.58203C30.7578 7.82812 30.7695 8.04102 30.7852 8.2207C30.8008 8.40039 30.8184 8.55078 30.8379 8.67188C30.8574 8.79297 30.8789 8.89453 30.9023 8.97656V9H29.5488V8.97656C29.5723 8.89453 29.5938 8.79297 29.6133 8.67188C29.6367 8.55078 29.6543 8.40039 29.666 8.2207C29.6816 8.04102 29.6934 7.82812 29.7012 7.58203C29.7129 7.33203 29.7188 7.04102 29.7188 6.70898V5.05078ZM32.0391 7.27148C32.0391 6.96289 32.1016 6.69531 32.2266 6.46875C32.3555 6.24219 32.5254 6.04883 32.7363 5.88867C32.9473 5.72852 33.1875 5.59961 33.457 5.50195C33.7266 5.40039 34.0059 5.32227 34.2949 5.26758C34.584 5.20898 34.8691 5.16992 35.1504 5.15039C35.4316 5.12695 35.6895 5.11328 35.9238 5.10938V4.81055C35.9238 4.55273 35.8906 4.33008 35.8242 4.14258C35.7578 3.95508 35.6641 3.80078 35.543 3.67969C35.4219 3.55469 35.2754 3.46289 35.1035 3.4043C34.9355 3.3418 34.75 3.31055 34.5469 3.31055C34.4062 3.31055 34.2676 3.32227 34.1309 3.3457C33.9941 3.36914 33.8516 3.4082 33.7031 3.46289C33.5586 3.51758 33.4043 3.5918 33.2402 3.68555C33.0801 3.7793 32.9062 3.89844 32.7188 4.04297L32.6602 4.00781L33.0586 3.18164C33.1875 3.12305 33.3145 3.07617 33.4395 3.04102C33.5645 3.00195 33.6914 2.9707 33.8203 2.94727C33.9492 2.92383 34.0801 2.9082 34.2129 2.90039C34.3496 2.88867 34.4922 2.88281 34.6406 2.88281C35.0508 2.88281 35.4004 2.93359 35.6895 3.03516C35.9824 3.13281 36.2207 3.26953 36.4043 3.44531C36.5918 3.61719 36.7285 3.82031 36.8145 4.05469C36.9004 4.28516 36.9434 4.5332 36.9434 4.79883V6.70898C36.9434 7.04102 36.9473 7.33203 36.9551 7.58203C36.9668 7.82812 36.9785 8.04102 36.9902 8.2207C37.0059 8.40039 37.0234 8.55078 37.043 8.67188C37.0664 8.79297 37.0898 8.89453 37.1133 8.97656V9H35.8184V8.97656C35.8379 8.91406 35.8516 8.84375 35.8594 8.76562C35.8711 8.6875 35.8809 8.59375 35.8887 8.48438C35.8066 8.55469 35.709 8.62695 35.5957 8.70117C35.4863 8.77539 35.3594 8.84375 35.2148 8.90625C35.0742 8.96484 34.916 9.01172 34.7402 9.04688C34.5684 9.08594 34.3789 9.10547 34.1719 9.10547C33.4922 9.10547 32.9668 8.94727 32.5957 8.63086C32.2246 8.31055 32.0391 7.85742 32.0391 7.27148ZM35.9238 5.56641C35.5684 5.57031 35.2266 5.5918 34.8984 5.63086C34.5703 5.66602 34.2793 5.74219 34.0254 5.85938C33.7754 5.97656 33.5742 6.14453 33.4219 6.36328C33.2734 6.57812 33.1992 6.86523 33.1992 7.22461C33.1992 7.68555 33.3145 8.03711 33.5449 8.2793C33.7754 8.52148 34.0938 8.64258 34.5 8.64258C34.6875 8.64258 34.8574 8.61719 35.0098 8.56641C35.166 8.51172 35.3027 8.44531 35.4199 8.36719C35.541 8.28516 35.6426 8.19727 35.7246 8.10352C35.8066 8.00586 35.8691 7.91211 35.9121 7.82227C35.9199 7.67383 35.9238 7.50977 35.9238 7.33008C35.9238 7.14648 35.9238 6.93945 35.9238 6.70898V5.56641ZM42.75 5.05078C42.75 4.53516 42.6465 4.15625 42.4395 3.91406C42.2324 3.67188 41.9551 3.55078 41.6074 3.55078C41.4824 3.55078 41.3418 3.57812 41.1855 3.63281C41.0293 3.68359 40.8691 3.75391 40.7051 3.84375C40.541 3.92969 40.377 4.03125 40.2129 4.14844C40.0488 4.26562 39.8945 4.39062 39.75 4.52344L39.7383 5.29102V6.70898C39.7383 7.04102 39.7422 7.33203 39.75 7.58203C39.7578 7.82812 39.7695 8.04102 39.7852 8.2207C39.8008 8.40039 39.8184 8.55078 39.8379 8.67188C39.8574 8.79297 39.8789 8.89453 39.9023 8.97656V9H38.5488V8.97656C38.5723 8.89453 38.5938 8.79297 38.6133 8.67188C38.6367 8.55078 38.6543 8.40039 38.666 8.2207C38.6816 8.04102 38.6934 7.82812 38.7012 7.58203C38.7129 7.33203 38.7188 7.04102 38.7188 6.70898V5.29102C38.7188 4.95898 38.7129 4.66992 38.7012 4.42383C38.6934 4.17383 38.6816 3.95898 38.666 3.7793C38.6543 3.59961 38.6367 3.44922 38.6133 3.32812C38.5938 3.20703 38.5723 3.10547 38.5488 3.02344V3H39.9023V3.02344C39.8711 3.12109 39.8457 3.24609 39.8262 3.39844C39.8105 3.54688 39.793 3.74219 39.7734 3.98438C39.9336 3.85156 40.1055 3.71875 40.2891 3.58594C40.4766 3.45312 40.6699 3.33594 40.8691 3.23438C41.0684 3.12891 41.2715 3.04492 41.4785 2.98242C41.6855 2.91602 41.8887 2.88281 42.0879 2.88281C42.3926 2.88281 42.6504 2.93555 42.8613 3.04102C43.0762 3.14648 43.25 3.28516 43.3828 3.45703C43.5195 3.62891 43.6172 3.82617 43.6758 4.04883C43.7383 4.26758 43.7695 4.49023 43.7695 4.7168V6.70898C43.7695 7.04102 43.7734 7.33203 43.7812 7.58203C43.7891 7.82812 43.8008 8.04102 43.8164 8.2207C43.832 8.40039 43.8496 8.55078 43.8691 8.67188C43.8887 8.79297 43.9102 8.89453 43.9336 8.97656V9H42.5801V8.97656C42.6035 8.89453 42.625 8.79297 42.6445 8.67188C42.668 8.55078 42.6855 8.40039 42.6973 8.2207C42.7129 8.04102 42.7246 7.82812 42.7324 7.58203C42.7441 7.33203 42.75 7.04102 42.75 6.70898V5.05078ZM51.2812 1.11328C50.8203 1.11328 50.4043 1.13477 50.0332 1.17773C49.6621 1.2168 49.3418 1.25977 49.0723 1.30664C48.7598 1.36523 48.4805 1.42969 48.2344 1.5L48.4043 0.550781C48.4512 0.554688 48.5215 0.558594 48.6152 0.5625C48.709 0.566406 48.8125 0.570312 48.9258 0.574219C49.043 0.578125 49.1641 0.582031 49.2891 0.585938C49.418 0.585938 49.5391 0.587891 49.6523 0.591797C49.7656 0.591797 49.8652 0.59375 49.9512 0.597656C50.041 0.597656 50.1055 0.597656 50.1445 0.597656H53.4902C53.5293 0.597656 53.5918 0.597656 53.6777 0.597656C53.7676 0.59375 53.8691 0.591797 53.9824 0.591797C54.0957 0.587891 54.2148 0.585938 54.3398 0.585938C54.4688 0.582031 54.5898 0.578125 54.7031 0.574219C54.8203 0.570312 54.9258 0.566406 55.0195 0.5625C55.1133 0.558594 55.1836 0.554688 55.2305 0.550781L55.4004 1.5C55.1504 1.42969 54.8691 1.36523 54.5566 1.30664C54.2871 1.25977 53.9668 1.2168 53.5957 1.17773C53.2246 1.13477 52.8086 1.11328 52.3477 1.11328V6.70898C52.3477 7.04102 52.3516 7.33203 52.3594 7.58203C52.3711 7.82812 52.3828 8.04102 52.3945 8.2207C52.4102 8.40039 52.4277 8.55078 52.4473 8.67188C52.4707 8.79297 52.4941 8.89453 52.5176 8.97656V9H51.1172V8.97656C51.1406 8.89453 51.1621 8.79297 51.1816 8.67188C51.2012 8.55078 51.2188 8.40039 51.2344 8.2207C51.25 8.04102 51.2617 7.82812 51.2695 7.58203C51.2773 7.33203 51.2812 7.04102 51.2812 6.70898V1.11328ZM60.3398 5.05078C60.3398 4.53516 60.2363 4.15625 60.0293 3.91406C59.8223 3.67188 59.5449 3.55078 59.1973 3.55078C59.0684 3.55078 58.9238 3.57812 58.7637 3.63281C58.6074 3.68359 58.4453 3.75391 58.2773 3.84375C58.1133 3.93359 57.9492 4.03906 57.7852 4.16016C57.6211 4.27734 57.4688 4.40234 57.3281 4.53516V6.70898C57.3281 7.04102 57.332 7.33203 57.3398 7.58203C57.3477 7.82812 57.3594 8.04102 57.375 8.2207C57.3906 8.40039 57.4082 8.55078 57.4277 8.67188C57.4473 8.79297 57.4688 8.89453 57.4922 8.97656V9H56.1387V8.97656C56.1621 8.89453 56.1836 8.79297 56.2031 8.67188C56.2266 8.55078 56.2441 8.40039 56.2559 8.2207C56.2715 8.04102 56.2832 7.82812 56.291 7.58203C56.3027 7.33203 56.3086 7.04102 56.3086 6.70898V2.53125C56.3086 2.19922 56.3027 1.91016 56.291 1.66406C56.2832 1.41406 56.2715 1.19922 56.2559 1.01953C56.2441 0.839844 56.2266 0.689453 56.2031 0.568359C56.1836 0.447266 56.1621 0.345703 56.1387 0.263672V0.240234H57.4922V0.263672C57.4688 0.345703 57.4473 0.447266 57.4277 0.568359C57.4082 0.689453 57.3906 0.839844 57.375 1.01953C57.3594 1.19922 57.3477 1.41406 57.3398 1.66406C57.332 1.91016 57.3281 2.19922 57.3281 2.53125V4.03125C57.4844 3.89062 57.6562 3.75195 57.8438 3.61523C58.0352 3.47852 58.2324 3.35547 58.4355 3.24609C58.6387 3.13672 58.8457 3.04883 59.0566 2.98242C59.2676 2.91602 59.4746 2.88281 59.6777 2.88281C59.9824 2.88281 60.2402 2.93555 60.4512 3.04102C60.666 3.14648 60.8398 3.28516 60.9727 3.45703C61.1094 3.62891 61.207 3.82617 61.2656 4.04883C61.3281 4.26758 61.3594 4.49023 61.3594 4.7168V6.70898C61.3594 7.04102 61.3633 7.33203 61.3711 7.58203C61.3789 7.82812 61.3906 8.04102 61.4062 8.2207C61.4219 8.40039 61.4395 8.55078 61.459 8.67188C61.4785 8.79297 61.5 8.89453 61.5234 8.97656V9H60.1699V8.97656C60.1934 8.89453 60.2148 8.79297 60.2344 8.67188C60.2578 8.55078 60.2754 8.40039 60.2871 8.2207C60.3027 8.04102 60.3145 7.82812 60.3223 7.58203C60.334 7.33203 60.3398 7.04102 60.3398 6.70898V5.05078ZM62.6602 7.27148C62.6602 6.96289 62.7227 6.69531 62.8477 6.46875C62.9766 6.24219 63.1465 6.04883 63.3574 5.88867C63.5684 5.72852 63.8086 5.59961 64.0781 5.50195C64.3477 5.40039 64.627 5.32227 64.916 5.26758C65.2051 5.20898 65.4902 5.16992 65.7715 5.15039C66.0527 5.12695 66.3105 5.11328 66.5449 5.10938V4.81055C66.5449 4.55273 66.5117 4.33008 66.4453 4.14258C66.3789 3.95508 66.2852 3.80078 66.1641 3.67969C66.043 3.55469 65.8965 3.46289 65.7246 3.4043C65.5566 3.3418 65.3711 3.31055 65.168 3.31055C65.0273 3.31055 64.8887 3.32227 64.752 3.3457C64.6152 3.36914 64.4727 3.4082 64.3242 3.46289C64.1797 3.51758 64.0254 3.5918 63.8613 3.68555C63.7012 3.7793 63.5273 3.89844 63.3398 4.04297L63.2812 4.00781L63.6797 3.18164C63.8086 3.12305 63.9355 3.07617 64.0605 3.04102C64.1855 3.00195 64.3125 2.9707 64.4414 2.94727C64.5703 2.92383 64.7012 2.9082 64.834 2.90039C64.9707 2.88867 65.1133 2.88281 65.2617 2.88281C65.6719 2.88281 66.0215 2.93359 66.3105 3.03516C66.6035 3.13281 66.8418 3.26953 67.0254 3.44531C67.2129 3.61719 67.3496 3.82031 67.4355 4.05469C67.5215 4.28516 67.5645 4.5332 67.5645 4.79883V6.70898C67.5645 7.04102 67.5684 7.33203 67.5762 7.58203C67.5879 7.82812 67.5996 8.04102 67.6113 8.2207C67.627 8.40039 67.6445 8.55078 67.6641 8.67188C67.6875 8.79297 67.7109 8.89453 67.7344 8.97656V9H66.4395V8.97656C66.459 8.91406 66.4727 8.84375 66.4805 8.76562C66.4922 8.6875 66.502 8.59375 66.5098 8.48438C66.4277 8.55469 66.3301 8.62695 66.2168 8.70117C66.1074 8.77539 65.9805 8.84375 65.8359 8.90625C65.6953 8.96484 65.5371 9.01172 65.3613 9.04688C65.1895 9.08594 65 9.10547 64.793 9.10547C64.1133 9.10547 63.5879 8.94727 63.2168 8.63086C62.8457 8.31055 62.6602 7.85742 62.6602 7.27148ZM66.5449 5.56641C66.1895 5.57031 65.8477 5.5918 65.5195 5.63086C65.1914 5.66602 64.9004 5.74219 64.6465 5.85938C64.3965 5.97656 64.1953 6.14453 64.043 6.36328C63.8945 6.57812 63.8203 6.86523 63.8203 7.22461C63.8203 7.68555 63.9355 8.03711 64.166 8.2793C64.3965 8.52148 64.7148 8.64258 65.1211 8.64258C65.3086 8.64258 65.4785 8.61719 65.6309 8.56641C65.7871 8.51172 65.9238 8.44531 66.041 8.36719C66.1621 8.28516 66.2637 8.19727 66.3457 8.10352C66.4277 8.00586 66.4902 7.91211 66.5332 7.82227C66.541 7.67383 66.5449 7.50977 66.5449 7.33008C66.5449 7.14648 66.5449 6.93945 66.5449 6.70898V5.56641ZM69.375 5.29102C69.375 4.95898 69.3691 4.66992 69.3574 4.42383C69.3496 4.17383 69.3379 3.95898 69.3223 3.7793C69.3105 3.59961 69.293 3.44922 69.2695 3.32812C69.25 3.20703 69.2285 3.10547 69.2051 3.02344V3H70.5586V3.02344C70.5352 3.10547 70.5137 3.20703 70.4941 3.32812C70.4746 3.44922 70.457 3.59961 70.4414 3.7793C70.4258 3.95898 70.4141 4.17383 70.4062 4.42383C70.3984 4.66992 70.3945 4.95898 70.3945 5.29102V6.70898C70.3945 7.04102 70.3984 7.33203 70.4062 7.58203C70.4141 7.82812 70.4258 8.04102 70.4414 8.2207C70.457 8.40039 70.4746 8.55078 70.4941 8.67188C70.5137 8.79297 70.5352 8.89453 70.5586 8.97656V9H69.2051V8.97656C69.2285 8.89453 69.25 8.79297 69.2695 8.67188C69.293 8.55078 69.3105 8.40039 69.3223 8.2207C69.3379 8.04102 69.3496 7.82812 69.3574 7.58203C69.3691 7.33203 69.375 7.04102 69.375 6.70898V5.29102ZM69.252 1.22461C69.252 1.13867 69.2676 1.05859 69.2988 0.984375C69.334 0.90625 69.3789 0.839844 69.4336 0.785156C69.4883 0.726562 69.5527 0.681641 69.627 0.650391C69.7051 0.615234 69.7891 0.597656 69.8789 0.597656C69.9688 0.597656 70.0508 0.615234 70.125 0.650391C70.2031 0.681641 70.2695 0.726562 70.3242 0.785156C70.3828 0.839844 70.4277 0.90625 70.459 0.984375C70.4941 1.05859 70.5117 1.13867 70.5117 1.22461C70.5117 1.4043 70.4512 1.55469 70.3301 1.67578C70.209 1.79688 70.0586 1.85742 69.8789 1.85742C69.7891 1.85742 69.7051 1.8418 69.627 1.81055C69.5527 1.77539 69.4883 1.73047 69.4336 1.67578C69.3789 1.61719 69.334 1.55078 69.2988 1.47656C69.2676 1.39844 69.252 1.31445 69.252 1.22461ZM75.3516 8.97656C75.3945 8.91406 75.4434 8.82227 75.498 8.70117C75.5527 8.57617 75.5957 8.41992 75.627 8.23242C75.6699 7.95898 75.7168 7.65234 75.7676 7.3125C75.8223 6.96875 75.877 6.60938 75.9316 6.23438C75.9902 5.85938 76.0469 5.47656 76.1016 5.08594C76.1602 4.69141 76.2148 4.30469 76.2656 3.92578C76.3203 3.54297 76.3711 3.17578 76.418 2.82422C76.4688 2.46875 76.5137 2.14453 76.5527 1.85156C76.5918 1.55859 76.623 1.30469 76.6465 1.08984C76.6738 0.871094 76.6934 0.707031 76.7051 0.597656H77.4492L81.1348 7.48828L84.791 0.597656H85.3477L86.3086 7.55859C86.3359 7.77734 86.3652 7.96484 86.3965 8.12109C86.4277 8.27734 86.459 8.41211 86.4902 8.52539C86.5215 8.63477 86.5508 8.72656 86.5781 8.80078C86.6094 8.87109 86.6387 8.92969 86.666 8.97656V9H85.1895V8.97656C85.209 8.93359 85.2266 8.86328 85.2422 8.76562C85.2617 8.66797 85.2715 8.55078 85.2715 8.41406C85.2715 8.36328 85.2695 8.3125 85.2656 8.26172C85.2617 8.20703 85.2559 8.14844 85.248 8.08594L84.5039 2.47266L81.0469 8.97656L80.6426 8.92969L77.1621 2.41406C77.0254 3.33984 76.9062 4.19531 76.8047 4.98047C76.7617 5.31641 76.7188 5.65234 76.6758 5.98828C76.6328 6.32031 76.5938 6.63086 76.5586 6.91992C76.5273 7.20898 76.502 7.46484 76.4824 7.6875C76.4629 7.90625 76.4531 8.06836 76.4531 8.17383C76.4531 8.30664 76.457 8.42383 76.4648 8.52539C76.4727 8.62695 76.4805 8.71289 76.4883 8.7832C76.5 8.86523 76.5117 8.9375 76.5234 9H75.3516V8.97656ZM87.5859 7.27148C87.5859 6.96289 87.6484 6.69531 87.7734 6.46875C87.9023 6.24219 88.0723 6.04883 88.2832 5.88867C88.4941 5.72852 88.7344 5.59961 89.0039 5.50195C89.2734 5.40039 89.5527 5.32227 89.8418 5.26758C90.1309 5.20898 90.416 5.16992 90.6973 5.15039C90.9785 5.12695 91.2363 5.11328 91.4707 5.10938V4.81055C91.4707 4.55273 91.4375 4.33008 91.3711 4.14258C91.3047 3.95508 91.2109 3.80078 91.0898 3.67969C90.9688 3.55469 90.8223 3.46289 90.6504 3.4043C90.4824 3.3418 90.2969 3.31055 90.0938 3.31055C89.9531 3.31055 89.8145 3.32227 89.6777 3.3457C89.541 3.36914 89.3984 3.4082 89.25 3.46289C89.1055 3.51758 88.9512 3.5918 88.7871 3.68555C88.627 3.7793 88.4531 3.89844 88.2656 4.04297L88.207 4.00781L88.6055 3.18164C88.7344 3.12305 88.8613 3.07617 88.9863 3.04102C89.1113 3.00195 89.2383 2.9707 89.3672 2.94727C89.4961 2.92383 89.627 2.9082 89.7598 2.90039C89.8965 2.88867 90.0391 2.88281 90.1875 2.88281C90.5977 2.88281 90.9473 2.93359 91.2363 3.03516C91.5293 3.13281 91.7676 3.26953 91.9512 3.44531C92.1387 3.61719 92.2754 3.82031 92.3613 4.05469C92.4473 4.28516 92.4902 4.5332 92.4902 4.79883V6.70898C92.4902 7.04102 92.4941 7.33203 92.502 7.58203C92.5137 7.82812 92.5254 8.04102 92.5371 8.2207C92.5527 8.40039 92.5703 8.55078 92.5898 8.67188C92.6133 8.79297 92.6367 8.89453 92.6602 8.97656V9H91.3652V8.97656C91.3848 8.91406 91.3984 8.84375 91.4062 8.76562C91.418 8.6875 91.4277 8.59375 91.4355 8.48438C91.3535 8.55469 91.2559 8.62695 91.1426 8.70117C91.0332 8.77539 90.9062 8.84375 90.7617 8.90625C90.6211 8.96484 90.4629 9.01172 90.2871 9.04688C90.1152 9.08594 89.9258 9.10547 89.7188 9.10547C89.0391 9.10547 88.5137 8.94727 88.1426 8.63086C87.7715 8.31055 87.5859 7.85742 87.5859 7.27148ZM91.4707 5.56641C91.1152 5.57031 90.7734 5.5918 90.4453 5.63086C90.1172 5.66602 89.8262 5.74219 89.5723 5.85938C89.3223 5.97656 89.1211 6.14453 88.9688 6.36328C88.8203 6.57812 88.7461 6.86523 88.7461 7.22461C88.7461 7.68555 88.8613 8.03711 89.0918 8.2793C89.3223 8.52148 89.6406 8.64258 90.0469 8.64258C90.2344 8.64258 90.4043 8.61719 90.5566 8.56641C90.7129 8.51172 90.8496 8.44531 90.9668 8.36719C91.0879 8.28516 91.1895 8.19727 91.2715 8.10352C91.3535 8.00586 91.416 7.91211 91.459 7.82227C91.4668 7.67383 91.4707 7.50977 91.4707 7.33008C91.4707 7.14648 91.4707 6.93945 91.4707 6.70898V5.56641ZM96.9141 4.17773L96.832 4.18945C96.8047 4.09961 96.7598 4.00391 96.6973 3.90234C96.6387 3.80078 96.5605 3.70703 96.4629 3.62109C96.3691 3.53516 96.2539 3.46484 96.1172 3.41016C95.9844 3.35156 95.8301 3.32227 95.6543 3.32227C95.5332 3.32227 95.418 3.33984 95.3086 3.375C95.2031 3.41016 95.1094 3.46289 95.0273 3.5332C94.9492 3.59961 94.8867 3.68359 94.8398 3.78516C94.793 3.88672 94.7695 4.00586 94.7695 4.14258C94.7695 4.33398 94.8281 4.51758 94.9453 4.69336C95.0664 4.86523 95.2168 5.03711 95.3965 5.20898C95.5762 5.37695 95.7695 5.54688 95.9766 5.71875C96.1875 5.89062 96.3828 6.07031 96.5625 6.25781C96.7422 6.44531 96.8906 6.64648 97.0078 6.86133C97.1289 7.07227 97.1895 7.30078 97.1895 7.54688C97.1895 7.74609 97.1543 7.94141 97.084 8.13281C97.0137 8.32031 96.9043 8.48828 96.7559 8.63672C96.6113 8.78516 96.4238 8.90625 96.1934 9C95.9668 9.08984 95.6953 9.13477 95.3789 9.13477C95.1914 9.13477 95.0156 9.11719 94.8516 9.08203C94.6914 9.04688 94.543 9.00391 94.4062 8.95312C94.2734 8.89844 94.1523 8.83984 94.043 8.77734C93.9375 8.71094 93.8438 8.64844 93.7617 8.58984L93.8203 7.47656H93.9141C93.9531 7.66016 94.0117 7.82812 94.0898 7.98047C94.168 8.13281 94.2637 8.26367 94.377 8.37305C94.4941 8.47852 94.627 8.5625 94.7754 8.625C94.9238 8.68359 95.0859 8.71289 95.2617 8.71289C95.5508 8.71289 95.7793 8.63281 95.9473 8.47266C96.1191 8.3125 96.2051 8.10352 96.2051 7.8457C96.2051 7.63867 96.1465 7.44922 96.0293 7.27734C95.916 7.10156 95.7715 6.93359 95.5957 6.77344C95.4199 6.61328 95.2305 6.45312 95.0273 6.29297C94.8281 6.13281 94.6406 5.96289 94.4648 5.7832C94.2891 5.59961 94.1426 5.40039 94.0254 5.18555C93.9121 4.9668 93.8555 4.71875 93.8555 4.44141C93.8555 4.21484 93.8965 4.00781 93.9785 3.82031C94.0645 3.62891 94.1816 3.4668 94.3301 3.33398C94.4824 3.19727 94.6621 3.0918 94.8691 3.01758C95.0762 2.94336 95.3027 2.90625 95.5488 2.90625C95.873 2.90625 96.1426 2.94141 96.3574 3.01172C96.5762 3.07812 96.7422 3.14258 96.8555 3.20508L96.9141 4.17773ZM101.168 4.17773L101.086 4.18945C101.059 4.09961 101.014 4.00391 100.951 3.90234C100.893 3.80078 100.814 3.70703 100.717 3.62109C100.623 3.53516 100.508 3.46484 100.371 3.41016C100.238 3.35156 100.084 3.32227 99.9082 3.32227C99.7871 3.32227 99.6719 3.33984 99.5625 3.375C99.457 3.41016 99.3633 3.46289 99.2812 3.5332C99.2031 3.59961 99.1406 3.68359 99.0938 3.78516C99.0469 3.88672 99.0234 4.00586 99.0234 4.14258C99.0234 4.33398 99.082 4.51758 99.1992 4.69336C99.3203 4.86523 99.4707 5.03711 99.6504 5.20898C99.8301 5.37695 100.023 5.54688 100.23 5.71875C100.441 5.89062 100.637 6.07031 100.816 6.25781C100.996 6.44531 101.145 6.64648 101.262 6.86133C101.383 7.07227 101.443 7.30078 101.443 7.54688C101.443 7.74609 101.408 7.94141 101.338 8.13281C101.268 8.32031 101.158 8.48828 101.01 8.63672C100.865 8.78516 100.678 8.90625 100.447 9C100.221 9.08984 99.9492 9.13477 99.6328 9.13477C99.4453 9.13477 99.2695 9.11719 99.1055 9.08203C98.9453 9.04688 98.7969 9.00391 98.6602 8.95312C98.5273 8.89844 98.4062 8.83984 98.2969 8.77734C98.1914 8.71094 98.0977 8.64844 98.0156 8.58984L98.0742 7.47656H98.168C98.207 7.66016 98.2656 7.82812 98.3438 7.98047C98.4219 8.13281 98.5176 8.26367 98.6309 8.37305C98.748 8.47852 98.8809 8.5625 99.0293 8.625C99.1777 8.68359 99.3398 8.71289 99.5156 8.71289C99.8047 8.71289 100.033 8.63281 100.201 8.47266C100.373 8.3125 100.459 8.10352 100.459 7.8457C100.459 7.63867 100.4 7.44922 100.283 7.27734C100.17 7.10156 100.025 6.93359 99.8496 6.77344C99.6738 6.61328 99.4844 6.45312 99.2812 6.29297C99.082 6.13281 98.8945 5.96289 98.7188 5.7832C98.543 5.59961 98.3965 5.40039 98.2793 5.18555C98.166 4.9668 98.1094 4.71875 98.1094 4.44141C98.1094 4.21484 98.1504 4.00781 98.2324 3.82031C98.3184 3.62891 98.4355 3.4668 98.584 3.33398C98.7363 3.19727 98.916 3.0918 99.123 3.01758C99.3301 2.94336 99.5566 2.90625 99.8027 2.90625C100.127 2.90625 100.396 2.94141 100.611 3.01172C100.83 3.07812 100.996 3.14258 101.109 3.20508L101.168 4.17773ZM102.305 7.27148C102.305 6.96289 102.367 6.69531 102.492 6.46875C102.621 6.24219 102.791 6.04883 103.002 5.88867C103.213 5.72852 103.453 5.59961 103.723 5.50195C103.992 5.40039 104.271 5.32227 104.561 5.26758C104.85 5.20898 105.135 5.16992 105.416 5.15039C105.697 5.12695 105.955 5.11328 106.189 5.10938V4.81055C106.189 4.55273 106.156 4.33008 106.09 4.14258C106.023 3.95508 105.93 3.80078 105.809 3.67969C105.688 3.55469 105.541 3.46289 105.369 3.4043C105.201 3.3418 105.016 3.31055 104.812 3.31055C104.672 3.31055 104.533 3.32227 104.396 3.3457C104.26 3.36914 104.117 3.4082 103.969 3.46289C103.824 3.51758 103.67 3.5918 103.506 3.68555C103.346 3.7793 103.172 3.89844 102.984 4.04297L102.926 4.00781L103.324 3.18164C103.453 3.12305 103.58 3.07617 103.705 3.04102C103.83 3.00195 103.957 2.9707 104.086 2.94727C104.215 2.92383 104.346 2.9082 104.479 2.90039C104.615 2.88867 104.758 2.88281 104.906 2.88281C105.316 2.88281 105.666 2.93359 105.955 3.03516C106.248 3.13281 106.486 3.26953 106.67 3.44531C106.857 3.61719 106.994 3.82031 107.08 4.05469C107.166 4.28516 107.209 4.5332 107.209 4.79883V6.70898C107.209 7.04102 107.213 7.33203 107.221 7.58203C107.232 7.82812 107.244 8.04102 107.256 8.2207C107.271 8.40039 107.289 8.55078 107.309 8.67188C107.332 8.79297 107.355 8.89453 107.379 8.97656V9H106.084V8.97656C106.104 8.91406 106.117 8.84375 106.125 8.76562C106.137 8.6875 106.146 8.59375 106.154 8.48438C106.072 8.55469 105.975 8.62695 105.861 8.70117C105.752 8.77539 105.625 8.84375 105.48 8.90625C105.34 8.96484 105.182 9.01172 105.006 9.04688C104.834 9.08594 104.645 9.10547 104.438 9.10547C103.758 9.10547 103.232 8.94727 102.861 8.63086C102.49 8.31055 102.305 7.85742 102.305 7.27148ZM106.189 5.56641C105.834 5.57031 105.492 5.5918 105.164 5.63086C104.836 5.66602 104.545 5.74219 104.291 5.85938C104.041 5.97656 103.84 6.14453 103.688 6.36328C103.539 6.57812 103.465 6.86523 103.465 7.22461C103.465 7.68555 103.58 8.03711 103.811 8.2793C104.041 8.52148 104.359 8.64258 104.766 8.64258C104.953 8.64258 105.123 8.61719 105.275 8.56641C105.432 8.51172 105.568 8.44531 105.686 8.36719C105.807 8.28516 105.908 8.19727 105.99 8.10352C106.072 8.00586 106.135 7.91211 106.178 7.82227C106.186 7.67383 106.189 7.50977 106.189 7.33008C106.189 7.14648 106.189 6.93945 106.189 6.70898V5.56641ZM111.252 11.6777C111.568 11.6777 111.836 11.6426 112.055 11.5723C112.273 11.5059 112.453 11.4121 112.594 11.291C112.738 11.1699 112.848 11.0234 112.922 10.8516C113 10.6836 113.057 10.498 113.092 10.2949C113.131 10.0918 113.152 9.875 113.156 9.64453C113.164 9.41406 113.168 9.17578 113.168 8.92969V8.73633C112.977 8.83789 112.746 8.92578 112.477 9C112.207 9.07031 111.902 9.10547 111.562 9.10547C111.098 9.10547 110.676 9.0332 110.297 8.88867C109.918 8.74414 109.594 8.53711 109.324 8.26758C109.059 7.99805 108.854 7.67188 108.709 7.28906C108.564 6.90234 108.492 6.46875 108.492 5.98828C108.492 5.54688 108.562 5.13672 108.703 4.75781C108.848 4.37891 109.049 4.05078 109.307 3.77344C109.568 3.49609 109.879 3.2793 110.238 3.12305C110.602 2.96289 111.002 2.88281 111.439 2.88281C111.627 2.88281 111.799 2.89844 111.955 2.92969C112.111 2.96094 112.256 3.00391 112.389 3.05859C112.525 3.10938 112.652 3.16992 112.77 3.24023C112.891 3.30664 113.008 3.37891 113.121 3.45703L113.062 3.02344V3H114.357V3.02344C114.334 3.10547 114.311 3.20703 114.287 3.32812C114.268 3.44922 114.25 3.59961 114.234 3.7793C114.223 3.95898 114.211 4.17383 114.199 4.42383C114.191 4.66992 114.188 4.95898 114.188 5.29102V9.27539C114.188 9.63477 114.139 9.98438 114.041 10.3242C113.947 10.668 113.785 10.9727 113.555 11.2383C113.328 11.5039 113.027 11.7168 112.652 11.877C112.277 12.0371 111.811 12.1172 111.252 12.1172C111.057 12.1172 110.859 12.0977 110.66 12.0586C110.461 12.0234 110.271 11.9785 110.092 11.9238C109.912 11.873 109.75 11.8164 109.605 11.7539C109.461 11.6914 109.346 11.6367 109.26 11.5898L109.078 10.4648L109.172 10.4414C109.266 10.6445 109.393 10.8223 109.553 10.9746C109.717 11.1309 109.895 11.2598 110.086 11.3613C110.277 11.4668 110.475 11.5449 110.678 11.5957C110.885 11.6504 111.076 11.6777 111.252 11.6777ZM111.826 8.67773C112.107 8.67773 112.361 8.63086 112.588 8.53711C112.818 8.44336 113.012 8.33398 113.168 8.20898V5.29102C113.168 5.07227 113.166 4.875 113.162 4.69922C113.158 4.51953 113.156 4.35742 113.156 4.21289C113.062 4.06836 112.953 3.94141 112.828 3.83203C112.707 3.71875 112.576 3.625 112.436 3.55078C112.299 3.47266 112.158 3.41406 112.014 3.375C111.869 3.33203 111.727 3.31055 111.586 3.31055C111.289 3.31055 111.021 3.36523 110.783 3.47461C110.545 3.58398 110.342 3.74219 110.174 3.94922C110.01 4.15234 109.883 4.40234 109.793 4.69922C109.707 4.99219 109.664 5.32617 109.664 5.70117C109.664 6.12305 109.711 6.51562 109.805 6.87891C109.898 7.24219 110.035 7.55859 110.215 7.82812C110.398 8.09375 110.625 8.30273 110.895 8.45508C111.164 8.60352 111.475 8.67773 111.826 8.67773ZM118.617 9.10547C118.184 9.10547 117.777 9.03711 117.398 8.90039C117.02 8.76367 116.689 8.56445 116.408 8.30273C116.127 8.03711 115.904 7.71094 115.74 7.32422C115.58 6.93359 115.5 6.48828 115.5 5.98828C115.5 5.54688 115.574 5.13867 115.723 4.76367C115.871 4.38477 116.076 4.05664 116.338 3.7793C116.6 3.50195 116.904 3.28516 117.252 3.12891C117.604 2.97266 117.982 2.89453 118.389 2.89453C118.791 2.89453 119.164 2.96484 119.508 3.10547C119.852 3.24219 120.148 3.44336 120.398 3.70898C120.652 3.9707 120.852 4.29688 120.996 4.6875C121.145 5.07422 121.225 5.51562 121.236 6.01172C120.795 6.00391 120.354 5.99805 119.912 5.99414C119.471 5.99023 119.012 5.98828 118.535 5.98828C118.195 5.98828 117.863 5.99023 117.539 5.99414C117.219 5.99805 116.93 6.00391 116.672 6.01172C116.695 6.41797 116.758 6.78516 116.859 7.11328C116.965 7.44141 117.107 7.72266 117.287 7.95703C117.471 8.1875 117.691 8.36523 117.949 8.49023C118.211 8.61523 118.506 8.67773 118.834 8.67773C119.061 8.67773 119.273 8.65234 119.473 8.60156C119.676 8.54688 119.859 8.47266 120.023 8.37891C120.188 8.28516 120.334 8.17578 120.463 8.05078C120.592 7.92188 120.701 7.7832 120.791 7.63477L120.861 7.66992L120.428 8.71289C120.217 8.82227 119.965 8.91602 119.672 8.99414C119.379 9.06836 119.027 9.10547 118.617 9.10547ZM117.838 5.53125C118.229 5.53125 118.619 5.53125 119.01 5.53125C119.404 5.52734 119.762 5.51953 120.082 5.50781C120.047 5.16797 119.98 4.86328 119.883 4.59375C119.785 4.32422 119.66 4.0957 119.508 3.9082C119.355 3.7207 119.176 3.57617 118.969 3.47461C118.762 3.37305 118.533 3.32227 118.283 3.32227C118.057 3.32227 117.848 3.37305 117.656 3.47461C117.469 3.57227 117.305 3.71484 117.164 3.90234C117.023 4.08984 116.91 4.32031 116.824 4.59375C116.738 4.86328 116.688 5.17188 116.672 5.51953C116.848 5.52734 117.033 5.53125 117.229 5.53125C117.424 5.53125 117.627 5.53125 117.838 5.53125Z" fill="#9E7E4C"/>
</svg>
